<svg xmlns="http://www.w3.org/2000/svg" height="800" width="1200" version="1.0" viewBox="-15.433275 -5.3244 133.75505 31.9464"><path d="M15.6805 0c-2.808 0-5.118 2.0796-5.118 5.5384 0 3.2424 1.5656 5.2752 4.7611 5.2752 2.8385 0 5.121-2.0947 5.121-5.5535C20.4446 1.6766 18.4721 0 15.6806 0zm28.0913 0c-2.5124 0-3.9836 1.287-3.9836 3.1488 0 3.4126 4.4192 2.5295 4.4192 4.5312 0 .9615-.8215 1.3793-1.8451 1.3793-.7603 0-1.597-.1701-2.187-.372l-.124 1.8753c.652.171 1.3941.251 2.1386.251 2.5751 0 4.144-1.4443 4.144-3.415 0-3.2416-4.4374-2.5755-4.4374-4.4524 0-.7445.6217-1.2705 1.7846-1.2705.6362 0 1.286.1074 1.8754.2783l.1089-1.7665C45.045.0786 44.3618 0 43.7718 0zm35.4476.0151c-3.6297 0-5.865 2.3436-5.865 5.6322 0 3.1955 1.9707 5.1482 5.2903 5.1482 1.2566 0 2.545-.2313 3.5844-.6503v-4.994h-2.0176v3.645c-.4025.124-.8376.1844-1.3339.1844-2.125 0-3.3363-1.3027-3.3363-3.5208 0-2.3422 1.491-3.645 3.5541-3.645.9774 0 1.9363.2004 2.7737.5264l.3116-1.8754c-.9002-.264-1.9219-.4507-2.9613-.4507zM0 .1694l3.6449 10.4718h2.311L9.6158.1694h-2.063L5.49 6.1736c-.3102.8837-.4801 1.4735-.6352 2.187h-.0333c-.186-.7603-.4188-1.4736-.62-2.063L2.1717.1694zm22.9098 0v10.4718h5.4144V8.8717h-3.3969V.1694zm7.5862 0v10.4718h2.0145V5.614l3.3817 5.0272H38.53l-4.002-5.4144L38.3605.1694h-2.4531l-3.3969 4.749V.1693zm17.4198 0l2.6679 10.4718h2.326l1.5185-5.8167c.1868-.6975.3274-1.3971.4053-2.1264h.0151c.109.7451.232 1.5046.4023 2.1718l1.5215 5.7713h2.4652L61.9055.1694H59.891l-1.4277 5.85a20.8959 20.8959 0 00-.4023 2.0145h-.0182c-.093-.7293-.2623-1.4737-.4174-2.0478L56.0102.1694h-2.1235l-1.597 5.85c-.1862.6672-.3116 1.3804-.4205 2.078h-.0151c-.093-.7293-.2163-1.4592-.3872-2.1416L50.0392.1694zm18.1488 0l-3.66 10.4718h2.0296l.729-2.1415h3.9867l.729 2.1415h2.205L68.3453.1694zm19.4978 0v10.4718h5.6927v-1.721H87.58V6.0797h3.4906V4.4374H87.58V1.8602h3.675V.1694zm8.657 0v10.4718h1.954V6.9026c0-1.256-.0317-3.0237-.0938-3.9232.3102.6824.7908 1.5052 1.2402 2.2958l3.1034 5.366h2.4652V.1694h-1.954V3.427c0 1.2876.031 3.2739.109 4.3285-.3881-.7913-.9141-1.7223-1.3794-2.5288L96.7148.1694zM15.496 1.8149c1.799 0 2.792 1.2731 2.792 3.5995 0 2.513-1.4605 3.5662-2.8252 3.5662-1.8776 0-2.7435-1.4419-2.7435-3.66 0-2.358 1.334-3.5057 2.7767-3.5057zm51.6212.6654h.0333c.1399.5894.2948 1.1016.496 1.6758l.977 2.7465h-2.9461l.9437-2.6679c.2172-.6045.372-1.2112.4961-1.7544z" fill="#48535a"/><path d="M44.8426 18.415c-.9444 0-1.5154.6367-1.5154 1.4972 0 .8692.5427 1.3854 1.3914 1.3854.3075 0 .6501-.0597.9286-.1634v-1.3067h-.3781v1.0617a1.662 1.662 0 01-.496.0757c-.6323 0-1.0406-.3992-1.0406-1.098 0-.7484.4957-1.1222 1.0738-1.1222.258 0 .5142.0525.7471.1482l.0605-.357a2.53 2.53 0 00-.7713-.121zm6.8542 0c-.6322 0-.9982.3342-.9982.7955 0 .8856 1.2674.6442 1.2674 1.2764 0 .3452-.2835.481-.62.481-.1954 0-.4155-.0448-.5778-.1029l-.0182.366c.1624.0416.3587.0666.5626.0666.6527 0 1.0496-.3622 1.0496-.8651 0-.8698-1.2734-.6572-1.2734-1.2644 0-.262.204-.4386.5868-.4386.1663 0 .3458.0295.5082.0757l.0212-.3388a2.6232 2.6232 0 00-.5082-.0514zm12.323 0c-.6322 0-.9982.3342-.9982.7955 0 .8856 1.2704.6442 1.2704 1.2764 0 .3452-.2828.481-.62.481-.1954 0-.4154-.0448-.5778-.1029l-.0211.366c.1623.0416.3617.0666.5656.0666.6527 0 1.0466-.3622 1.0466-.8651 0-.8698-1.2735-.6572-1.2735-1.2644 0-.262.204-.4386.5868-.4386.1663 0 .3459.0295.5082.0757l.0212-.3388a2.6232 2.6232 0 00-.5082-.0514zm3.4876.012c-.9477 0-1.3702.6437-1.3702 1.5004 0 .79.375 1.3641 1.2764 1.3641.2832 0 .5498-.052.7623-.1391l-.0424-.3418c-.1663.0832-.4252.1391-.6291.1391-.6527 0-.9528-.3925-.9528-1.0828 0-.6158.2763-1.1071.9165-1.1071.2125 0 .4194.0331.6352.0998l.0423-.3478c-.1993-.0495-.4217-.0847-.6382-.0847zm-33.5843.0182v2.8221h.3811v-2.822zm-9.1772.006l-1.0224 2.807h.369l.233-.6563h1.2703l.233.6564h.372l-1.0315-2.807zm2.7646 0v2.807h.3811V19.87l1.1192 1.3884h.5112l-1.231-1.449 1.1856-1.358h-.4688l-1.1162 1.3248v-1.3248zm2.9432 0v.3207h.8076v2.4864h.3811v-2.4864h.8106v-.3206zm5.8287 0v2.807h1.4429v-.3175h-1.0587v-.974h1.0103v-.3086h-1.0103v-.8892h1.0587v-.3176zm3.2759 0v2.807h.375v-.9013c0-.4455-.0137-1.1802-.0302-1.4791.0917.1874.2343.395.363.5989l1.1131 1.7816h.4144v-2.807h-.372v.7985c0 .4653.007 1.2187.0242 1.5638a8.5758 8.5758 0 00-.372-.6352l-1.089-1.7271zm7.9885 0v2.807h1.4428v-.3175h-1.0617v-.974h1.0103v-.3086h-1.0103v-.8892h1.0617v-.3176zm6.5729 0v2.807h1.4428v-.3175h-1.0587v-.974h1.0103v-.3086h-1.0103v-.8892h1.0587v-.3176zm3.2758 0v2.807h1.3914v-.3266h-1.0072v-2.4803zm2.9129 0v2.807h1.3884v-.3266h-1.0073v-2.4803zm9.3738 0v2.807h.3842v-1.2915h1.4307v1.2916h.3811v-2.807h-.381v1.1917h-1.4308v-1.1917zm4.4919 0l-1.0224 2.807h.369l.233-.6563h1.2733l.233.6564h.369l-1.0315-2.807zm2.7223 0v2.807h.3841V19.988h.9922v-.3086h-.9922v-.9104h1.0466v-.3176zm2.5075 0v.3207h.8076v2.4864h.3812v-2.4864h.8106v-.3206zm-54.4554.363h.0121c.0502.1492.1169.3155.1664.4568l.366 1.0284h-1.0678l.36-1.0224c.0501-.1412.1217-.3262.1633-.4628zm49.4282 0h.0151c.0495.1492.1139.3155.1634.4568l.366 1.0284h-1.0678l.363-1.0224c.0502-.1412.1187-.3262.1603-.4628z"/></svg>